
<svg width="1763" height="1080" viewBox="0 0 1763 1080" fill="none" xmlns="http://www.w3.org/2000/svg">
<rect width="1763" height="1080" fill="white"/>
<g filter="url(#filter0_i_508_5)">
<path d="M413.6 704V368H493.76L631.04 617.12H632.96V368H697.76V704H617.6L480.32 455.36H478.4V704H413.6ZM740.788 704V368H878.548C901.908 368 921.588 371.68 937.588 379.04C953.588 386.4 965.588 396.64 973.588 409.76C981.908 422.56 986.068 437.44 986.068 454.4C986.068 471.36 982.388 485.6 975.028 497.12C967.668 508.64 957.908 517.6 945.748 524C933.908 530.08 920.948 533.6 906.868 534.56L914.068 529.28C929.428 529.92 943.028 534.08 954.868 541.76C967.028 549.12 976.468 559.04 983.188 571.52C990.228 584 993.748 597.6 993.748 612.32C993.748 630.24 989.428 646.08 980.788 659.84C972.468 673.6 959.988 684.48 943.348 692.48C927.028 700.16 907.028 704 883.348 704H740.788ZM805.588 651.2H872.788C890.388 651.2 903.988 647.2 913.588 639.2C923.188 631.2 927.988 619.68 927.988 604.64C927.988 589.6 923.028 577.92 913.108 569.6C903.188 560.96 889.428 556.64 871.828 556.64H805.588V651.2ZM805.588 508.16H867.988C884.948 508.16 897.908 504.32 906.868 496.64C915.828 488.96 920.308 478.08 920.308 464C920.308 450.24 915.828 439.52 906.868 431.84C897.908 423.84 884.788 419.84 867.508 419.84H805.588V508.16ZM1174.98 709.76C1145.54 709.76 1119.46 702.72 1096.74 688.64C1074.34 674.24 1056.74 654.24 1043.94 628.64C1031.14 602.72 1024.74 572.64 1024.74 538.4C1024.74 503.84 1031.46 473.44 1044.9 447.2C1058.66 420.64 1078.02 399.84 1102.98 384.8C1128.26 369.76 1158.5 362.24 1193.7 362.24C1233.38 362.24 1266.18 371.68 1292.1 390.56C1318.34 409.44 1335.3 435.68 1342.98 469.28H1270.5C1265.7 454.56 1256.74 443.04 1243.62 434.72C1230.5 426.08 1213.7 421.76 1193.22 421.76C1171.46 421.76 1152.9 426.56 1137.54 436.16C1122.18 445.76 1110.5 459.2 1102.5 476.48C1094.82 493.76 1090.98 514.4 1090.98 538.4C1090.98 562.72 1094.82 583.36 1102.5 600.32C1110.5 617.28 1121.86 630.24 1136.58 639.2C1151.62 647.84 1169.22 652.16 1189.38 652.16C1218.82 652.16 1241.06 644.32 1256.1 628.64C1271.46 612.64 1280.58 592 1283.46 566.72H1200.9V518.24H1348.74V704H1289.7L1284.42 647.36H1282.5C1275.14 660.48 1266.18 671.84 1255.62 681.44C1245.06 690.72 1232.9 697.76 1219.14 702.56C1205.7 707.36 1190.98 709.76 1174.98 709.76Z" fill="black"/>
</g>
<defs>
<filter id="filter0_i_508_5" x="395.6" y="362.24" width="953.137" height="375.82" filterUnits="userSpaceOnUse" color-interpolation-filters="sRGB">
<feFlood flood-opacity="0" result="BackgroundImageFix"/>
<feBlend mode="normal" in="SourceGraphic" in2="BackgroundImageFix" result="shape"/>
<feColorMatrix in="SourceAlpha" type="matrix" values="0 0 0 0 0 0 0 0 0 0 0 0 0 0 0 0 0 0 127 0" result="hardAlpha"/>
<feOffset dx="-18" dy="54"/>
<feGaussianBlur stdDeviation="14.15"/>
<feComposite in2="hardAlpha" operator="arithmetic" k2="-1" k3="1"/>
<feColorMatrix type="matrix" values="0 0 0 0 0.695817 0 0 0 0 0.802281 0 0 0 0 1 0 0 0 0.28 0"/>
<feBlend mode="normal" in2="shape" result="effect1_innerShadow_508_5"/>
</filter>
</defs>
</svg>
